# xmcd
#
# Track frame offsets: 
#        150
#        25605
#        52527
#        77017
#        119387
#        162570
#        189472
#        216040
#        240302
#
# Disc length: 3529 seconds
#
# Revision: 2
# Processed by: cddbd v1.4PL0 Copyright (c) Steve Scherf et al.
# Submitted via: ExactAudioCopy v0.95a3
#
DISCID=640dc709
DTITLE=Ruth Brown - Blues on Broadway
DYEAR=1900
DGENRE=Blues
TTITLE0=Nobody Knows You When You're Down and Out
TTITLE1=Good Mornin Heartache
TTITLE2=If I Can't Sell It, I'll Keep Sittin' On It
TTITLE3=Tain't Nobody's Biz-ness If I Do
TTITLE4=St. Louis Blues
TTITLE5=Am I Blue
TTITLE6=I'm Just a Lucky So and So
TTITLE7=I Don't Break Dance
TTITLE8=Come Sunday
EXTD=
EXTT0=
EXTT1=
EXTT2=
EXTT3=
EXTT4=
EXTT5=
EXTT6=
EXTT7=
EXTT8=
PLAYORDER=
